<?xml version="1.0" standalone="no"?>
<!DOCTYPE svg PUBLIC "-//W3C//DTD SVG 20010904//EN"
 "http://www.w3.org/TR/2001/REC-SVG-20010904/DTD/svg10.dtd">
<svg version="1.0" xmlns="http://www.w3.org/2000/svg"
 width="128.000000pt" height="128.000000pt" viewBox="0 0 128.000000 128.000000"
 preserveAspectRatio="xMidYMid meet">
<metadata>
Created by potrace 1.11, written by Peter Selinger 2001-2013
</metadata>
<g transform="translate(0.000000,128.000000) scale(0.100000,-0.100000)"
fill="#000000" stroke="none">
<path d="M112 653 c-51 -252 -92 -464 -92 -470 0 -10 28 -13 105 -13 58 0 105
2 105 4 0 10 101 502 106 516 3 8 46 -83 96 -203 l91 -218 55 3 56 3 149 190
c82 105 157 201 167 215 16 21 18 22 15 5 -19 -83 -95 -485 -95 -498 0 -15 13
-17 104 -17 l103 0 92 458 c50 251 91 463 91 470 0 9 -26 12 -97 11 l-98 0
-219 -280 c-120 -153 -222 -279 -225 -279 -4 0 -57 125 -118 278 l-111 277
-94 3 -94 3 -92 -458z"/>
</g>
</svg>
