<?xml version="1.0" encoding="utf-8"?>
<!-- Generator: Adobe Illustrator 23.0.2, SVG Export Plug-In . SVG Version: 6.00 Build 0)  -->
<svg version="1.1" xmlns="http://www.w3.org/2000/svg" xmlns:xlink="http://www.w3.org/1999/xlink" x="0px" y="0px"
	 viewBox="0 0 321.9 311.2" style="enable-background:new 0 0 321.9 311.2;" xml:space="preserve">
<style type="text/css">
	.st0{display:none;}
</style>
<g id="Layer_1" class="st0">
	
		<image style="display:inline;overflow:visible;" width="1600" height="1700" xlink:href="../../../../Downloads/depositphotos_252750124-stock-illustration-sparkle-icons-set-vector-illustration (1).jpg"  transform="matrix(1 0 0 1 -368.6733 -640.3762)">
	</image>
</g>
<g id="Layer_2" class="st0">
	
		<image style="display:inline;overflow:visible;" width="1600" height="1700" xlink:href="../../../../Downloads/depositphotos_197613746-stock-illustration-sparkles-twinkle-lights-line-vector.jpg"  transform="matrix(0.5885 0 0 0.5885 -280.1188 -234.8515)">
	</image>
</g>
<g id="Layer_3">
	<g>
		<path d="M160.8,35.2l26.1,52.5l52.9-24.4l-15.1,56.6l56.6,15.9l-47.6,33.8l32.6,46.8l-57.8-3.7l-5.3,58.6l-42.3-41.9l-40.7,41.9
			l-5.7-58.2L57,216.7l31.7-49.3l-46-32.6L98.1,119L83.4,63.3l53.3,23.6L160.8,35.2 M160.4,7.5l-10.5,22.7l-19,41L88.3,52.3
			L65.5,42.2l6.3,24.1l11.7,44.4l-44.1,12.6l-24,6.9l20.4,14.4l36.6,25.9l-25.5,39.6l-12.9,20l23.7-1.5l45.8-2.9l4.6,46.7l2.5,25.8
			l18-18.6l32.3-33.2l33.7,33.4l18.1,17.9l2.3-25.4l4.2-47l46.1,2.9l24.8,1.6l-14.2-20.4l-25.8-37l37.9-26.9l20.5-14.5l-24.2-6.8
			l-45.2-12.7l12-45.1l6.6-24.7l-23.2,10.7l-42.3,19.5l-20.9-42.1L160.4,7.5L160.4,7.5z"/>
	</g>
</g>
</svg>
