<?xml version="1.0" encoding="utf-8"?>
<!-- Generator: Adobe Illustrator 23.0.2, SVG Export Plug-In . SVG Version: 6.00 Build 0)  -->
<svg version="1.1" xmlns="http://www.w3.org/2000/svg" xmlns:xlink="http://www.w3.org/1999/xlink" x="0px" y="0px"
	 viewBox="0 0 321.9 311.2" style="enable-background:new 0 0 321.9 311.2;" xml:space="preserve">
<style type="text/css">
	.st0{display:none;}
	.st1{fill:#29FF8F;}
	.st2{display:inline;fill:#FFFFFF;}
</style>
<g id="Layer_1" class="st0">
	
		<image style="display:inline;overflow:visible;" width="1600" height="1700" xlink:href="../../../../Downloads/depositphotos_252750124-stock-illustration-sparkle-icons-set-vector-illustration (1).jpg"  transform="matrix(1 0 0 1 -368.6733 -640.3762)">
	</image>
</g>
<g id="Layer_2" class="st0">
	
		<image style="display:inline;overflow:visible;" width="1600" height="1700" xlink:href="../../../../Downloads/depositphotos_197613746-stock-illustration-sparkles-twinkle-lights-line-vector.jpg"  transform="matrix(0.5885 0 0 0.5885 -280.1188 -234.8515)">
	</image>
</g>
<g id="Layer_3">
	<g>
		<polygon class="st1" points="115,219.4 51.5,223.4 86.6,169 35.1,132.6 96.9,114.9 80.5,52.7 139.9,79 166.7,21.3 195.7,79.8 
			254.9,52.5 238.1,115.7 301,133.3 248,170.9 284.3,223.1 219.9,219 214,284.5 166.9,237.9 121.4,284.7 		"/>
		<path class="st1" d="M166.8,35.2l26.1,52.5l52.9-24.4l-15.1,56.6l56.6,15.9l-47.6,33.8l32.6,46.8l-57.8-3.7l-5.3,58.6l-42.3-41.9
			l-40.7,41.9l-5.7-58.2L63,216.7l31.7-49.3l-46-32.6l55.4-15.9L89.5,63.3l53.3,23.6L166.8,35.2 M166.5,7.5l-10.5,22.7l-19,41
			L94.4,52.3L71.6,42.2l6.3,24.1l11.7,44.4l-44.1,12.6l-24,6.9l20.4,14.4l36.6,25.9L53,210.2l-12.9,20l23.7-1.5l45.8-2.9l4.6,46.7
			l2.5,25.8l18-18.6l32.3-33.2l33.7,33.4l18.1,17.9l2.3-25.4l4.2-47l46.1,2.9l24.8,1.6l-14.2-20.4l-25.8-37l37.9-26.9l20.5-14.5
			l-24.2-6.8l-45.2-12.7l12-45.1l6.6-24.7l-23.2,10.7l-42.3,19.5l-20.9-42.1L166.5,7.5L166.5,7.5z"/>
	</g>
	<g class="st0">
		<path class="st2" d="M122.3,147.8c0.3,0,0.5,0.2,0.5,0.4v20.2h8c0.3,0,0.4,0.2,0.4,0.4v5.7c0,0.3-0.2,0.4-0.4,0.4H96.3
			c-0.2,0-0.4-0.3-0.4-0.5v-5.6c0-0.2,0.3-0.4,0.5-0.4h8.2v-11.2h-8c-0.4,0-0.7-0.1-0.7-0.4v-5.1c0-0.2,0.1-0.7,0.4-0.7h12.1
			c1.8,0,2.8-1.7,3.6-2.8c0.1-0.1,0.4-0.3,0.5-0.3H122.3z"/>
		<path class="st2" d="M157.4,174.8c-13.7,0-23.9-5.4-23.9-13.4c0-6,7.2-13.6,24-13.6h5.6c9.7,0,22,3.5,22,13c0,10.4-15.5,14-22,14
			H157.4z M153,161.3c0,4.1,3.5,6.9,6.4,6.9c4.1,0,6.7-3.2,6.7-6.9c0-3.2-2.4-6.9-6.6-6.9C155.3,154.5,153,157.6,153,161.3z"/>
		<path class="st2" d="M212.2,174.8c-13.7,0-23.9-5.4-23.9-13.4c0-6,7.2-13.6,24-13.6h5.6c9.7,0,22,3.5,22,13c0,10.4-15.5,14-22,14
			H212.2z M207.8,161.3c0,4.1,3.5,6.9,6.4,6.9c4.1,0,6.7-3.2,6.7-6.9c0-3.2-2.4-6.9-6.6-6.9C210.1,154.5,207.8,157.6,207.8,161.3z"
			/>
	</g>
</g>
</svg>
